<?xml version="1.0" encoding="UTF-8"?>
<svg width="24px" height="24px" viewBox="0 0 24 24" xmlns="http://www.w3.org/2000/svg">
<style>
    svg {
        color: white;
    }

    .bg-rect {
        fill: #0ea5e9;
    }
    
    @media (prefers-color-scheme: dark) {
      svg {
        color: black;
      }

      .bg-rect {
        fill: #38bdf8;
      }
    }
  </style>

<rect x="2" y="2" width="20" height="20" rx="2" ry="2" class="bg-rect" />

<!-- assets/icons/logo.svg -->
<svg width="24px" height="24px" viewBox="0 0 24 24" stroke="currentColor" stroke-width="0" fill="currentColor" xmlns="http://www.w3.org/2000/svg">

<!-- dots on the left -->
<circle cx="4" cy="4" r=".5"></circle>
<circle cx="4" cy="6" r=".5"></circle>
<circle cx="4" cy="8" r=".5"></circle>
<circle cx="4" cy="10" r=".5"></circle>
<circle cx="4" cy="12" r=".5"></circle>
<circle cx="4" cy="14" r=".5"></circle>
<circle cx="4" cy="16" r=".5"></circle>
<circle cx="4" cy="18" r=".5"></circle>
<circle cx="4" cy="20" r=".5"></circle>
<circle cx="6" cy="4" r=".75"></circle>
<circle cx="6" cy="6" r=".75"></circle>
<circle cx="6" cy="8" r=".75"></circle>
<circle cx="6" cy="10" r=".75"></circle>
<circle cx="6" cy="12" r=".75"></circle>
<circle cx="6" cy="14" r=".75"></circle>
<circle cx="6" cy="16" r=".75"></circle>
<circle cx="6" cy="18" r=".75"></circle>
<circle cx="6" cy="20" r=".75"></circle>

<mask id="mask">
<rect x="0" y="0" width="24" height="24" fill="white" />
<!-- "C" in Noto Sans (500) -->
<g fill="black" transform="translate(8, 1.5) scale(0.3)"><path d="M17 21.90Q14.35 21.90 12.25 22.82Q10.15 23.75 8.68 25.55Q7.20 27.35 6.43 29.90Q5.65 32.45 5.65 35.65Q5.65 39.85 6.90 42.92Q8.15 46.00 10.65 47.65Q13.15 49.30 16.95 49.30Q19.25 49.30 21.38 48.87Q23.50 48.45 25.70 47.75L25.70 52.40Q23.60 53.20 21.40 53.57Q19.20 53.95 16.30 53.95Q10.85 53.95 7.23 51.70Q3.60 49.45 1.80 45.30Q0 41.15 0 35.60Q0 31.55 1.13 28.17Q2.25 24.80 4.40 22.35Q6.55 19.90 9.73 18.57Q12.90 17.25 17.05 17.25Q19.75 17.25 22.35 17.82Q24.95 18.40 27.05 19.45L25.05 23.95Q23.30 23.15 21.28 22.52Q19.25 21.90 17 21.90Z"/></g>
</mask>

<!-- box in the middle -->
<rect x="8" y="4" width="8" height="16" stroke-width="1.5" stroke-linecap="round" stroke-linejoin="round" mask="url(#mask)" />

<!-- dots on the right -->
<circle cx="18" cy="4" r=".75"></circle>
<circle cx="18" cy="6" r=".75"></circle>
<circle cx="18" cy="8" r=".75"></circle>
<circle cx="18" cy="10" r=".75"></circle>
<circle cx="18" cy="12" r=".75"></circle>
<circle cx="18" cy="14" r=".75"></circle>
<circle cx="18" cy="16" r=".75"></circle>
<circle cx="18" cy="18" r=".75"></circle>
<circle cx="18" cy="20" r=".75"></circle>
<circle cx="20" cy="4" r=".5"></circle>
<circle cx="20" cy="6" r=".5"></circle>
<circle cx="20" cy="8" r=".5"></circle>
<circle cx="20" cy="10" r=".5"></circle>
<circle cx="20" cy="12" r=".5"></circle>
<circle cx="20" cy="14" r=".5"></circle>
<circle cx="20" cy="16" r=".5"></circle>
<circle cx="20" cy="18" r=".5"></circle>
<circle cx="20" cy="20" r=".5"></circle>
</svg>

</svg>